<?xml version="1.0" encoding="utf-8"?>
<!-- Generator: Adobe Illustrator 16.0.0, SVG Export Plug-In . SVG Version: 6.00 Build 0)  -->
<!DOCTYPE svg PUBLIC "-//W3C//DTD SVG 1.1//EN" "http://www.w3.org/Graphics/SVG/1.1/DTD/svg11.dtd">
<svg version="1.1" id="Layer_1" xmlns="http://www.w3.org/2000/svg" xmlns:xlink="http://www.w3.org/1999/xlink" x="0px" y="0px"
	 width="1920px" height="936.5px" viewBox="0 0 1920 936.5" enable-background="new 0 0 1920 936.5" xml:space="preserve">
<g opacity="0.1">
	<circle fill="none" stroke="#FFFFFF" stroke-miterlimit="10" cx="433.083" cy="177.268" r="43.658"/>
	<circle fill="none" stroke="#FFFFFF" stroke-miterlimit="10" cx="433.083" cy="177.268" r="34.927"/>
	<circle fill="none" stroke="#FFFFFF" stroke-miterlimit="10" cx="433.083" cy="177.269" r="26.195"/>
	<circle fill="none" stroke="#FFFFFF" stroke-miterlimit="10" cx="433.083" cy="177.269" r="17.463"/>
	<circle fill="none" stroke="#FFFFFF" stroke-miterlimit="10" cx="433.083" cy="177.269" r="8.732"/>
	<path fill="none" stroke="#FFFFFF" stroke-miterlimit="10" d="M485.474,177.269c0,28.933-23.456,52.39-52.39,52.39
		s-52.39-23.457-52.39-52.39c0-28.931,23.456-52.39,52.39-52.39S485.474,148.337,485.474,177.269z"/>
	<path fill="none" stroke="#FFFFFF" stroke-miterlimit="10" d="M494.205,177.269c0,33.755-27.365,61.122-61.122,61.122
		s-61.123-27.367-61.123-61.122c0-33.754,27.366-61.123,61.123-61.123S494.205,143.515,494.205,177.269z"/>
	<path fill="none" stroke="#FFFFFF" stroke-miterlimit="10" d="M502.938,177.269c0,38.575-31.274,69.854-69.854,69.854
		s-69.854-31.278-69.854-69.854s31.274-69.854,69.854-69.854S502.938,138.691,502.938,177.269z"/>
	<path fill="none" stroke="#FFFFFF" stroke-miterlimit="10" d="M511.668,177.269c0,43.397-35.183,78.586-78.585,78.586
		c-43.401,0-78.585-35.188-78.585-78.586s35.185-78.586,78.585-78.586C476.486,98.683,511.668,133.87,511.668,177.269z"/>
	<circle fill="none" stroke="#FFFFFF" stroke-miterlimit="10" cx="433.084" cy="177.269" r="87.317"/>
	<path fill="none" stroke="#FFFFFF" stroke-miterlimit="10" d="M529.132,177.269c0,53.042-43.002,96.049-96.049,96.049
		s-96.049-43.007-96.049-96.049s43.002-96.05,96.049-96.05S529.132,124.227,529.132,177.269z"/>
	<path fill="none" stroke="#FFFFFF" stroke-miterlimit="10" d="M537.864,177.269c0,57.864-46.911,104.781-104.781,104.781
		c-57.869,0-104.781-46.917-104.781-104.781c0-57.865,46.912-104.779,104.781-104.779
		C490.953,72.489,537.864,119.402,537.864,177.269z"/>
	<path fill="none" stroke="#FFFFFF" stroke-miterlimit="10" d="M546.596,177.269c0,62.687-50.819,113.513-113.512,113.513
		s-113.513-50.827-113.513-113.513S370.391,63.756,433.084,63.756S546.596,114.583,546.596,177.269z"/>
	<path fill="none" stroke="#FFFFFF" stroke-miterlimit="10" d="M555.328,177.269c0,67.509-54.731,122.243-122.244,122.243
		S310.84,244.777,310.84,177.269c0-67.509,54.73-122.245,122.243-122.245S555.328,109.759,555.328,177.269z"/>
	<path fill="none" stroke="#FFFFFF" stroke-miterlimit="10" d="M564.059,177.269c0,72.33-58.641,130.976-130.976,130.976
		s-130.976-58.646-130.976-130.976S360.748,46.292,433.083,46.292S564.059,104.938,564.059,177.269z"/>
	<path fill="none" stroke="#FFFFFF" stroke-miterlimit="10" d="M572.791,177.269c0,77.152-62.551,139.707-139.708,139.707
		S293.375,254.42,293.375,177.269s62.55-139.708,139.708-139.708C510.24,37.561,572.791,100.116,572.791,177.269z"/>
	<path fill="none" stroke="#FFFFFF" stroke-miterlimit="10" d="M581.521,177.269c0,81.976-66.461,148.439-148.438,148.439
		c-81.979,0-148.439-66.464-148.439-148.439S351.105,28.83,433.083,28.83S581.521,95.292,581.521,177.269z"/>
	<path fill="none" stroke="#FFFFFF" stroke-miterlimit="10" d="M590.254,177.269c0,86.796-70.367,157.173-157.17,157.173
		c-86.802,0-157.17-70.377-157.17-157.173s70.369-157.17,157.17-157.17C519.887,20.098,590.254,90.473,590.254,177.269z"/>
	<path fill="none" stroke="#FFFFFF" stroke-miterlimit="10" d="M598.985,177.269c0,91.619-74.277,165.902-165.902,165.902
		c-91.623,0-165.903-74.283-165.903-165.902S341.46,11.367,433.083,11.367C524.708,11.367,598.985,85.648,598.985,177.269z"/>
	<path fill="none" stroke="#FFFFFF" stroke-miterlimit="10" d="M607.717,177.269c0,96.441-78.187,174.635-174.633,174.635
		S258.45,273.71,258.45,177.269c0-96.44,78.188-174.634,174.634-174.634S607.717,80.828,607.717,177.269z"/>
	<path fill="none" stroke="#FFFFFF" stroke-miterlimit="10" d="M616.449,177.269c0,101.264-82.098,183.364-183.365,183.364
		s-183.365-82.101-183.365-183.364S331.816-6.098,433.083-6.098C534.354-6.098,616.449,76.004,616.449,177.269z"/>
	<path fill="none" stroke="#FFFFFF" stroke-miterlimit="10" d="M625.181,177.269c0,106.085-86.004,192.099-192.098,192.099
		c-106.089,0-192.097-86.014-192.097-192.099s86.008-192.1,192.097-192.1C539.177-14.831,625.181,71.184,625.181,177.269z"/>
	<path fill="none" stroke="#FFFFFF" stroke-miterlimit="10" d="M633.913,177.269c0,110.907-89.914,200.828-200.829,200.828
		c-110.912,0-200.83-89.921-200.83-200.828c0-110.907,89.918-200.829,200.83-200.829C543.999-23.561,633.913,66.36,633.913,177.269z
		"/>
	<path fill="none" stroke="#FFFFFF" stroke-miterlimit="10" d="M642.645,177.269c0,115.73-93.822,209.562-209.561,209.562
		c-115.733,0-209.561-93.831-209.561-209.562c0-115.729,93.828-209.562,209.561-209.562
		C548.82-32.293,642.645,61.54,642.645,177.269z"/>
	<path fill="none" stroke="#FFFFFF" stroke-miterlimit="10" d="M651.376,177.269c0,120.55-97.732,218.292-218.292,218.292
		c-120.558,0-218.293-97.742-218.293-218.292c0-120.551,97.735-218.292,218.293-218.292
		C553.644-41.023,651.376,56.717,651.376,177.269z"/>
	<path fill="none" stroke="#FFFFFF" stroke-miterlimit="10" d="M660.108,177.269c0,125.374-101.646,227.024-227.025,227.024
		c-125.377,0-227.024-101.65-227.024-227.024S307.706-49.756,433.083-49.756C558.465-49.756,660.108,51.895,660.108,177.269z"/>
	<path fill="none" stroke="#FFFFFF" stroke-miterlimit="10" d="M668.84,177.269c0,130.195-105.552,235.756-235.756,235.756
		c-130.202,0-235.757-105.561-235.757-235.756c0-130.194,105.555-235.755,235.757-235.755
		C563.288-58.486,668.84,47.074,668.84,177.269z"/>
	<path fill="none" stroke="#FFFFFF" stroke-miterlimit="10" d="M677.572,177.269c0,135.017-109.462,244.488-244.488,244.488
		c-135.023,0-244.488-109.472-244.488-244.488c0-135.018,109.465-244.488,244.488-244.488
		C568.109-67.22,677.572,42.25,677.572,177.269z"/>
	<path fill="none" stroke="#FFFFFF" stroke-miterlimit="10" d="M686.303,177.269c0,139.839-113.372,253.221-253.22,253.221
		c-139.846,0-253.22-113.382-253.22-253.221S293.237-75.95,433.083-75.95C572.932-75.951,686.303,37.429,686.303,177.269z"/>
	<path fill="none" stroke="#FFFFFF" stroke-miterlimit="10" d="M695.035,177.269c0,144.661-117.279,261.951-261.952,261.951
		c-144.668,0-261.952-117.29-261.952-261.951c0-144.662,117.284-261.952,261.952-261.952
		C577.756-84.684,695.035,32.606,695.035,177.269z"/>
	<path fill="none" stroke="#FFFFFF" stroke-miterlimit="10" d="M703.766,177.269c0,149.484-121.188,270.684-270.683,270.684
		c-149.492,0-270.684-121.199-270.684-270.684c0-149.483,121.192-270.683,270.684-270.683
		C582.578-93.415,703.766,27.785,703.766,177.269z"/>
	<path fill="none" stroke="#FFFFFF" stroke-miterlimit="10" d="M712.498,177.269c0,154.305-125.098,279.415-279.414,279.415
		c-154.312,0-279.415-125.109-279.415-279.415s125.102-279.415,279.415-279.415C587.399-102.146,712.498,22.963,712.498,177.269z"/>
	<path fill="none" stroke="#FFFFFF" stroke-miterlimit="10" d="M721.229,177.269c0,159.128-129.008,288.146-288.146,288.146
		c-159.136,0-288.146-129.019-288.146-288.146s129.01-288.146,288.146-288.146C592.222-110.877,721.229,18.14,721.229,177.269z"/>
	<path fill="none" stroke="#FFFFFF" stroke-miterlimit="10" d="M729.961,177.269c0,163.95-132.918,296.877-296.878,296.877
		c-163.959,0-296.878-132.928-296.878-296.877c0-163.949,132.919-296.878,296.878-296.878
		C597.043-119.609,729.961,13.319,729.961,177.269z"/>
	<path fill="none" stroke="#FFFFFF" stroke-miterlimit="10" d="M738.693,177.269c0,168.772-136.828,305.61-305.609,305.61
		s-305.609-136.838-305.609-305.61S264.304-128.34,433.084-128.34C601.865-128.341,738.693,8.497,738.693,177.269z"/>
	<path fill="none" stroke="#FFFFFF" stroke-miterlimit="10" d="M747.424,177.269c0,173.594-140.736,314.342-314.341,314.342
		c-173.603,0-314.341-140.748-314.341-314.342S259.48-137.073,433.083-137.073C606.688-137.074,747.424,3.674,747.424,177.269z"/>
	<path fill="none" stroke="#FFFFFF" stroke-miterlimit="10" d="M756.156,177.269c0,178.416-144.646,323.074-323.073,323.074
		c-178.425,0-323.073-144.658-323.073-323.074s144.648-323.073,323.073-323.073C611.51-145.805,756.156-1.147,756.156,177.269z"/>
	<path fill="none" stroke="#FFFFFF" stroke-miterlimit="10" d="M764.888,177.269c0,183.239-148.555,331.805-331.804,331.805
		c-183.246,0-331.805-148.565-331.805-331.805c0-183.238,148.559-331.805,331.805-331.805
		C616.333-154.537,764.888-5.969,764.888,177.269z"/>
	<path fill="none" stroke="#FFFFFF" stroke-miterlimit="10" d="M773.621,177.269c0,188.06-152.466,340.537-340.537,340.537
		c-188.068,0-340.537-152.478-340.537-340.537s152.469-340.538,340.537-340.538C621.154-163.27,773.621-10.792,773.621,177.269z"/>
	<path fill="none" stroke="#FFFFFF" stroke-miterlimit="10" d="M782.351,177.269c0,192.883-156.374,349.269-349.267,349.269
		c-192.891,0-349.269-156.386-349.269-349.269C83.815-15.615,240.193-172,433.084-172C625.977-172,782.351-15.615,782.351,177.269z"
		/>
	<path fill="none" stroke="#FFFFFF" stroke-miterlimit="10" d="M791.084,177.269c0,197.705-160.286,358-358,358
		c-197.712,0-358-160.295-358-358c0-197.703,160.288-358,358-358C630.798-180.732,791.084-20.436,791.084,177.269z"/>
	<path fill="none" stroke="#FFFFFF" stroke-miterlimit="10" d="M799.815,177.269C799.815,379.795,635.62,544,433.083,544
		C230.548,544,66.351,379.795,66.351,177.269s164.197-366.731,366.732-366.731C635.62-189.462,799.815-25.258,799.815,177.269z"/>
	<path fill="none" stroke="#FFFFFF" stroke-miterlimit="10" d="M808.547,177.269c0,207.349-168.104,375.465-375.463,375.465
		c-207.357,0-375.464-168.116-375.464-375.465c0-207.348,168.107-375.463,375.464-375.463
		C640.442-198.195,808.547-30.081,808.547,177.269z"/>
	<path fill="none" stroke="#FFFFFF" stroke-miterlimit="10" d="M817.278,177.269c0,212.17-172.014,384.195-384.195,384.195
		c-212.179,0-384.196-172.025-384.196-384.195s172.017-384.194,384.196-384.194C645.267-206.925,817.278-34.901,817.278,177.269z"/>
	<path fill="none" stroke="#FFFFFF" stroke-miterlimit="10" d="M826.011,177.269c0,216.994-175.922,392.928-392.927,392.928
		c-217.001,0-392.927-175.934-392.927-392.928c0-216.992,175.926-392.927,392.927-392.927
		C650.088-215.659,826.011-39.725,826.011,177.269z"/>
	<path fill="none" stroke="#FFFFFF" stroke-miterlimit="10" d="M834.742,177.269c0,221.813-179.832,401.658-401.659,401.658
		c-221.825,0-401.659-179.845-401.659-401.658c0-221.814,179.833-401.659,401.659-401.659
		C654.91-224.391,834.742-44.545,834.742,177.269z"/>
	<path fill="none" stroke="#FFFFFF" stroke-miterlimit="10" d="M843.474,177.269c0,226.638-183.739,410.392-410.39,410.392
		c-226.647,0-410.39-183.755-410.39-410.392s183.743-410.39,410.39-410.39C659.732-233.123,843.474-49.37,843.474,177.269z"/>
	<path fill="none" stroke="#FFFFFF" stroke-miterlimit="10" d="M852.205,177.269c0,231.458-187.65,419.122-419.122,419.122
		c-231.469,0-419.122-187.664-419.122-419.122c0-231.457,187.653-419.122,419.122-419.122
		C664.555-241.854,852.205-54.188,852.205,177.269z"/>
	<path fill="none" stroke="#FFFFFF" stroke-miterlimit="10" d="M860.938,177.269c0,236.28-191.561,427.854-427.854,427.854
		C196.792,605.123,5.23,413.549,5.23,177.269c0-236.281,191.562-427.854,427.854-427.854
		C669.377-250.585,860.938-59.014,860.938,177.269z"/>
	<path fill="none" stroke="#FFFFFF" stroke-miterlimit="10" d="M869.668,177.269c0,241.104-195.469,436.587-436.584,436.587
		C191.97,613.854-3.502,418.371-3.502,177.269c0-241.103,195.472-436.585,436.585-436.585
		C674.199-259.317,869.668-63.834,869.668,177.269z"/>
	<path fill="none" stroke="#FFFFFF" stroke-miterlimit="10" d="M878.4,177.269c0,245.925-199.379,445.316-445.317,445.316
		c-245.936,0-445.317-199.393-445.317-445.316s199.381-445.317,445.317-445.317C679.021-268.048,878.4-68.657,878.4,177.269z"/>
	<path fill="none" stroke="#FFFFFF" stroke-miterlimit="10" d="M887.132,177.269c0,250.747-203.289,454.051-454.048,454.051
		c-250.758,0-454.049-203.304-454.049-454.051c0-250.746,203.291-454.049,454.049-454.049
		C683.843-276.781,887.132-73.479,887.132,177.269z"/>
	<path fill="none" stroke="#FFFFFF" stroke-miterlimit="10" d="M895.863,177.269c0,255.568-207.196,462.779-462.78,462.779
		c-255.58,0-462.78-207.211-462.78-462.779s207.2-462.78,462.78-462.78C688.667-285.511,895.863-78.3,895.863,177.269z"/>
	<path fill="none" stroke="#FFFFFF" stroke-miterlimit="10" d="M904.597,177.269c0,260.393-211.105,471.514-471.513,471.514
		c-260.401,0-471.513-211.121-471.513-471.514c0-260.392,211.111-471.513,471.513-471.513
		C693.489-294.246,904.597-83.124,904.597,177.269z"/>
	<path fill="none" stroke="#FFFFFF" stroke-miterlimit="10" d="M913.327,177.269c0,265.214-215.017,480.243-480.244,480.243
		c-265.226,0-480.244-215.028-480.244-480.243c0-265.212,215.018-480.243,480.244-480.243
		C698.311-302.976,913.327-87.943,913.327,177.269z"/>
	<path fill="none" stroke="#FFFFFF" stroke-miterlimit="10" d="M922.06,177.269c0,270.036-218.927,488.978-488.976,488.978
		c-270.048,0-488.976-218.941-488.976-488.978c0-270.037,218.927-488.977,488.976-488.977S922.06-92.768,922.06,177.269z"/>
	<path fill="none" stroke="#FFFFFF" stroke-miterlimit="10" d="M930.791,177.269c0,274.857-222.836,497.706-497.708,497.706
		c-274.87,0-497.707-222.849-497.707-497.706s222.837-497.707,497.707-497.707C707.955-320.438,930.791-97.589,930.791,177.269z"/>
	<path fill="none" stroke="#FFFFFF" stroke-miterlimit="10" d="M939.523,177.269c0,279.68-226.747,506.439-506.44,506.439
		c-279.692,0-506.439-226.761-506.439-506.439c0-279.679,226.748-506.439,506.439-506.439
		C712.776-329.171,939.523-102.412,939.523,177.269z"/>
	<path fill="none" stroke="#FFFFFF" stroke-miterlimit="10" d="M948.255,177.269c0,284.502-230.655,515.172-515.171,515.172
		c-284.514,0-515.171-230.67-515.171-515.172c0-284.5,230.657-515.17,515.171-515.17C717.6-337.901,948.255-107.232,948.255,177.269
		z"/>
	<path fill="none" stroke="#FFFFFF" stroke-miterlimit="10" d="M956.985,177.269c0,289.322-234.564,523.903-523.902,523.903
		c-289.335,0-523.903-234.581-523.903-523.903c0-289.322,234.567-523.903,523.903-523.903
		C722.421-346.634,956.985-112.055,956.985,177.269z"/>
	<path fill="none" stroke="#FFFFFF" stroke-miterlimit="10" d="M965.718,177.269c0,294.146-238.475,532.635-532.634,532.635
		c-294.158,0-532.634-238.487-532.634-532.635c0-294.146,238.477-532.634,532.634-532.634
		C727.243-355.367,965.718-116.877,965.718,177.269z"/>
	<path fill="none" stroke="#FFFFFF" stroke-miterlimit="10" d="M974.45,177.269c0,298.966-242.385,541.365-541.367,541.365
		c-298.98,0-541.366-242.398-541.366-541.365s242.386-541.366,541.366-541.366C732.065-364.099,974.45-121.699,974.45,177.269z"/>
	<path fill="none" stroke="#FFFFFF" stroke-miterlimit="10" d="M983.181,177.269c0,303.79-246.293,550.099-550.097,550.099
		c-303.803,0-550.098-246.31-550.098-550.099c0-303.79,246.295-550.099,550.098-550.099S983.181-126.521,983.181,177.269z"/>
	<path fill="none" stroke="#FFFFFF" stroke-miterlimit="10" d="M991.912,177.269c0,308.611-250.203,558.829-558.829,558.829
		c-308.625,0-558.83-250.218-558.83-558.829s250.205-558.83,558.83-558.83C741.709-381.562,991.912-131.343,991.912,177.269z"/>
	<path fill="none" stroke="#FFFFFF" stroke-miterlimit="10" d="M1000.645,177.269c0,313.434-254.111,567.562-567.561,567.562
		c-313.447,0-567.561-254.128-567.561-567.562s254.114-567.561,567.561-567.561C746.531-390.292,1000.645-136.166,1000.645,177.269z
		"/>
	<path fill="none" stroke="#FFFFFF" stroke-miterlimit="10" d="M1009.376,177.269c0,318.257-258.021,576.292-576.292,576.292
		c-318.269,0-576.293-258.034-576.293-576.292c0-318.255,258.024-576.293,576.293-576.293
		C751.354-399.024,1009.376-140.987,1009.376,177.269z"/>
	<path fill="none" stroke="#FFFFFF" stroke-miterlimit="10" d="M1018.106,177.269c0,323.077-261.932,585.025-585.023,585.025
		c-323.09,0-585.024-261.948-585.024-585.025c0-323.077,261.934-585.024,585.024-585.024
		C756.176-407.755,1018.106-145.809,1018.106,177.269z"/>
	<path fill="none" stroke="#FFFFFF" stroke-miterlimit="10" d="M1026.839,177.269c0,327.9-265.841,593.757-593.755,593.757
		c-327.912,0-593.756-265.855-593.756-593.757c0-327.901,265.844-593.755,593.756-593.755
		C760.998-416.487,1026.839-150.632,1026.839,177.269z"/>
	<path fill="none" stroke="#FFFFFF" stroke-miterlimit="10" d="M1035.572,177.269c0,332.722-269.753,602.489-602.489,602.489
		c-332.734,0-602.488-269.769-602.488-602.489S100.349-425.22,433.083-425.22C765.819-425.22,1035.572-155.453,1035.572,177.269z"/>
	<path fill="none" stroke="#FFFFFF" stroke-miterlimit="10" d="M1044.302,177.269c0,337.543-273.66,611.22-611.218,611.22
		c-337.556,0-611.22-273.677-611.22-611.22c0-337.544,273.663-611.22,611.219-611.22
		C770.642-433.951,1044.302-160.275,1044.302,177.269z"/>
	<path fill="none" stroke="#FFFFFF" stroke-miterlimit="10" d="M1053.034,177.269c0,342.366-277.571,619.952-619.951,619.952
		c-342.379,0-619.951-277.586-619.951-619.952c0-342.366,277.572-619.953,619.951-619.953
		C775.463-442.684,1053.034-165.098,1053.034,177.269z"/>
	<path fill="none" stroke="#FFFFFF" stroke-miterlimit="10" d="M1061.766,177.269c0,347.188-281.479,628.684-628.682,628.684
		C85.883,805.951-195.6,524.456-195.6,177.269S85.883-451.414,433.083-451.414C780.286-451.415,1061.766-169.919,1061.766,177.269z"
		/>
	<path fill="none" stroke="#FFFFFF" stroke-miterlimit="10" d="M1070.499,177.269c0,352.012-285.391,637.415-637.416,637.415
		c-352.023,0-637.415-285.402-637.415-637.415c0-352.01,285.392-637.415,637.415-637.415
		C785.108-460.146,1070.499-174.742,1070.499,177.269z"/>
	<path fill="none" stroke="#FFFFFF" stroke-miterlimit="10" d="M1079.23,177.269c0,356.832-289.302,646.146-646.147,646.146
		c-356.845,0-646.146-289.314-646.146-646.146c0-356.832,289.302-646.145,646.146-646.145
		C789.931-468.876,1079.23-179.563,1079.23,177.269z"/>
	<path fill="none" stroke="#FFFFFF" stroke-miterlimit="10" d="M1087.961,177.269c0,361.657-293.208,654.877-654.877,654.877
		c-361.666,0-654.878-293.221-654.878-654.877c0-361.655,293.212-654.878,654.878-654.878
		C794.752-477.61,1087.961-184.386,1087.961,177.269z"/>
	<path fill="none" stroke="#FFFFFF" stroke-miterlimit="10" d="M1096.693,177.269c0,366.48-297.119,663.61-663.61,663.61
		c-366.489,0-663.61-297.13-663.61-663.61c0-366.475,297.122-663.608,663.61-663.608
		C799.574-486.34,1096.693-189.208,1096.693,177.269z"/>
	<path fill="none" stroke="#FFFFFF" stroke-miterlimit="10" d="M1105.425,177.269c0,371.303-301.027,672.342-672.341,672.342
		c-371.311,0-672.342-301.039-672.342-672.342c0-371.299,301.031-672.342,672.342-672.342
		C804.396-495.074,1105.425-194.031,1105.425,177.269z"/>
	<path fill="none" stroke="#FFFFFF" stroke-miterlimit="10" d="M1114.157,177.269c0,376.124-304.939,681.073-681.074,681.073
		c-376.133,0-681.074-304.949-681.074-681.073c0-376.119,304.94-681.074,681.074-681.074
		C809.218-503.806,1114.157-198.851,1114.157,177.269z"/>
	<path fill="none" stroke="#FFFFFF" stroke-miterlimit="10" d="M1122.888,177.269c0,380.946-308.848,689.806-689.804,689.806
		c-380.955,0-689.805-308.858-689.805-689.806c0-380.942,308.85-689.805,689.805-689.805
		C814.04-512.537,1122.888-203.673,1122.888,177.269z"/>
	<path fill="none" stroke="#FFFFFF" stroke-miterlimit="10" d="M1131.62,177.269c0,385.77-312.757,698.537-698.537,698.537
		c-385.777,0-698.537-312.769-698.537-698.537c0-385.764,312.76-698.536,698.537-698.536
		C818.863-521.269,1131.62-208.496,1131.62,177.269z"/>
	<path fill="none" stroke="#FFFFFF" stroke-miterlimit="10" d="M1140.352,177.269c0,390.592-316.666,707.269-707.268,707.269
		c-390.599,0-707.268-316.677-707.268-707.269C-274.185-213.317,42.484-530,433.083-530
		C823.685-530,1140.352-213.317,1140.352,177.269z"/>
	<path fill="none" stroke="#FFFFFF" stroke-miterlimit="10" d="M1149.082,177.269c0,395.412-320.575,716-715.999,716
		c-395.421,0-716-320.589-716-716c0-395.409,320.579-716,716-716C828.507-538.731,1149.082-218.142,1149.082,177.269z"/>
	<path fill="none" stroke="#FFFFFF" stroke-miterlimit="10" d="M1157.814,177.269C1157.814,577.504,833.329,902,433.083,902
		C32.84,902-291.648,577.504-291.648,177.269c0-400.23,324.488-724.731,724.731-724.731
		C833.329-547.463,1157.814-222.961,1157.814,177.269z"/>
	<path fill="none" stroke="#FFFFFF" stroke-miterlimit="10" d="M1166.546,177.269c0,405.059-328.396,733.466-733.462,733.466
		c-405.065,0-733.463-328.407-733.463-733.466c0-405.053,328.398-733.463,733.463-733.463
		C838.15-556.194,1166.546-227.785,1166.546,177.269z"/>
	<path fill="none" stroke="#FFFFFF" stroke-miterlimit="10" d="M1175.278,177.269c0,409.88-332.308,742.194-742.195,742.194
		c-409.888,0-742.195-332.314-742.195-742.194c0-409.873,332.307-742.195,742.195-742.195
		C842.973-564.926,1175.278-232.604,1175.278,177.269z"/>
	<path fill="none" stroke="#FFFFFF" stroke-miterlimit="10" d="M1184.012,177.269c0,414.701-336.218,750.928-750.928,750.928
		c-414.709,0-750.927-336.228-750.927-750.928c0-414.696,336.218-750.928,750.927-750.928
		C847.794-573.66,1184.012-237.428,1184.012,177.269z"/>
	<path fill="none" stroke="#FFFFFF" stroke-miterlimit="10" d="M1192.741,177.269c0,419.523-340.123,759.658-759.658,759.658
		c-419.531,0-759.659-340.135-759.659-759.658c0-419.518,340.127-759.658,759.659-759.658
		C852.618-582.391,1192.741-242.25,1192.741,177.269z"/>
	<path fill="none" stroke="#FFFFFF" stroke-miterlimit="10" d="M1201.474,177.269c0,424.347-344.032,768.393-768.39,768.393
		c-424.353,0-768.391-344.046-768.391-768.393c0-424.34,344.038-768.391,768.391-768.391
		C857.439-591.124,1201.474-247.073,1201.474,177.269z"/>
	<path fill="none" stroke="#FFFFFF" stroke-miterlimit="10" d="M1210.206,177.269c0,429.166-347.945,777.122-777.123,777.122
		c-429.175,0-777.122-347.956-777.122-777.122c0-429.163,347.947-777.121,777.122-777.121
		C862.261-599.854,1210.206-251.896,1210.206,177.269z"/>
	<path fill="none" stroke="#FFFFFF" stroke-miterlimit="10" d="M1218.938,177.269c0,433.99-351.854,785.854-785.854,785.854
		c-433.998,0-785.854-351.863-785.854-785.854c0-433.984,351.857-785.854,785.854-785.854
		C867.083-608.585,1218.938-256.715,1218.938,177.269z"/>
	<path fill="none" stroke="#FFFFFF" stroke-miterlimit="10" d="M1227.669,177.269c0,438.811-355.764,794.586-794.585,794.586
		c-438.82,0-794.586-355.775-794.586-794.586c0-438.807,355.766-794.584,794.586-794.584
		C871.905-617.316,1227.669-261.54,1227.669,177.269z"/>
	<path fill="none" stroke="#FFFFFF" stroke-miterlimit="10" d="M1236.4,177.269c0,443.634-359.676,803.317-803.317,803.317
		c-443.642,0-803.318-359.685-803.318-803.317c0-443.627,359.676-803.317,803.318-803.317
		C876.727-626.049,1236.4-266.359,1236.4,177.269z"/>
	<path fill="none" stroke="#FFFFFF" stroke-miterlimit="10" d="M1245.133,177.269c0,448.455-363.584,812.05-812.049,812.05
		c-448.464,0-812.049-363.596-812.049-812.05c0-448.451,363.584-812.049,812.049-812.049S1245.133-271.184,1245.133,177.269z"/>
	<path fill="none" stroke="#FFFFFF" stroke-miterlimit="10" d="M1253.863,177.269c0,453.276-367.491,820.78-820.78,820.78
		c-453.286,0-820.781-367.504-820.781-820.78c0-453.273,367.495-820.78,820.781-820.78
		C886.372-643.512,1253.863-276.004,1253.863,177.269z"/>
	<path fill="none" stroke="#FFFFFF" stroke-miterlimit="10" d="M1262.595,177.269c0,458.101-371.4,829.514-829.511,829.514
		c-458.107,0-829.512-371.413-829.512-829.514c0-458.094,371.405-829.512,829.512-829.512
		C891.192-652.245,1262.595-280.827,1262.595,177.269z"/>
	<path fill="none" stroke="#FFFFFF" stroke-miterlimit="10" d="M1271.327,177.269c0,462.922-375.312,838.244-838.244,838.244
		c-462.929,0-838.244-375.321-838.244-838.244c0-462.917,375.314-838.244,838.244-838.244
		C896.016-660.976,1271.327-285.648,1271.327,177.269z"/>
	<path fill="none" stroke="#FFFFFF" stroke-miterlimit="10" d="M1280.061,177.269c0,467.744-379.224,846.979-846.977,846.979
		c-467.751,0-846.976-379.233-846.976-846.979c0-467.738,379.224-846.976,846.976-846.976
		C900.837-669.708,1280.061-290.47,1280.061,177.269z"/>
	<path fill="none" stroke="#FFFFFF" stroke-miterlimit="10" d="M1288.791,177.269c0,472.564-383.132,855.707-855.708,855.707
		c-472.574,0-855.707-383.143-855.707-855.707c0-472.562,383.133-855.707,855.707-855.707
		C905.659-678.438,1288.791-295.293,1288.791,177.269z"/>
	<path fill="none" stroke="#FFFFFF" stroke-miterlimit="10" d="M1297.521,177.269c0,477.389-387.041,864.44-864.438,864.44
		c-477.396,0-864.439-387.053-864.439-864.44c0-477.382,387.042-864.439,864.439-864.439
		C910.481-687.17,1297.521-300.115,1297.521,177.269z"/>
	<path fill="none" stroke="#FFFFFF" stroke-miterlimit="10" d="M1306.254,177.269c0,482.209-390.951,873.171-873.17,873.171
		c-482.218,0-873.171-390.962-873.171-873.171c0-482.206,390.953-873.17,873.171-873.17
		C915.303-695.901,1306.254-304.938,1306.254,177.269z"/>
	<path fill="none" stroke="#FFFFFF" stroke-miterlimit="10" d="M1314.987,177.269c0,487.031-394.861,881.902-881.904,881.902
		c-487.041,0-881.903-394.871-881.903-881.902c0-487.027,394.862-881.903,881.903-881.903
		C920.126-704.635,1314.987-309.759,1314.987,177.269z"/>
	<path fill="none" stroke="#FFFFFF" stroke-miterlimit="10" d="M1323.716,177.269c0,491.854-398.769,890.635-890.632,890.635
		c-491.862,0-890.634-398.779-890.634-890.635c0-491.849,398.772-890.633,890.634-890.633
		C924.947-713.366,1323.716-314.582,1323.716,177.269z"/>
	<path fill="none" stroke="#FFFFFF" stroke-miterlimit="10" d="M1332.449,177.269c0,496.677-402.681,899.366-899.366,899.366
		c-496.684,0-899.366-402.688-899.366-899.366c0-496.67,402.682-899.367,899.366-899.367
		C929.771-722.099,1332.449-319.402,1332.449,177.269z"/>
	<path fill="none" stroke="#FFFFFF" stroke-miterlimit="10" d="M1341.182,177.269c0,501.499-406.59,908.098-908.098,908.098
		c-501.506,0-908.097-406.6-908.097-908.098c0-501.493,406.591-908.097,908.097-908.097
		C934.592-730.829,1341.182-324.225,1341.182,177.269z"/>
	<path fill="none" stroke="#FFFFFF" stroke-miterlimit="10" d="M1349.913,177.269c0,506.319-410.5,916.829-916.83,916.829
		c-506.328,0-916.829-410.51-916.829-916.829c0-506.316,410.501-916.83,916.829-916.83
		C939.413-739.562,1349.913-329.047,1349.913,177.269z"/>
	<path fill="none" stroke="#FFFFFF" stroke-miterlimit="10" d="M1358.645,177.269c0,511.144-414.407,925.562-925.561,925.562
		c-511.15,0-925.562-414.419-925.562-925.562c0-511.137,414.412-925.56,925.562-925.56
		C944.235-748.292,1358.645-333.869,1358.645,177.269z"/>
	<path fill="none" stroke="#FFFFFF" stroke-miterlimit="10" d="M1367.376,177.269c0,515.966-418.318,934.293-934.292,934.293
		s-934.293-418.327-934.293-934.293c0-515.959,418.32-934.293,934.293-934.293S1367.376-338.691,1367.376,177.269z"/>
	<path fill="none" stroke="#FFFFFF" stroke-miterlimit="10" d="M1376.108,177.269c0,520.785-422.229,943.025-943.025,943.025
		c-520.794,0-943.024-422.24-943.024-943.025c0-520.782,422.23-943.023,943.024-943.023
		C953.881-765.755,1376.108-343.514,1376.108,177.269z"/>
	<path fill="none" stroke="#FFFFFF" stroke-miterlimit="10" d="M1384.84,177.269c0,525.607-426.139,951.757-951.756,951.757
		s-951.756-426.148-951.756-951.757c0-525.604,426.14-951.756,951.756-951.756C958.701-774.489,1384.84-348.335,1384.84,177.269z"/>
	<path fill="none" stroke="#FFFFFF" stroke-miterlimit="10" d="M1393.571,177.269c0,530.43-430.047,960.487-960.488,960.487
		c-530.438,0-960.488-430.059-960.488-960.487c0-530.425,430.049-960.488,960.488-960.488
		C963.524-783.219,1393.571-353.158,1393.571,177.269z"/>
	<path fill="none" stroke="#FFFFFF" stroke-miterlimit="10" d="M1402.303,177.269c0,535.252-433.956,969.221-969.219,969.221
		c-535.26,0-969.22-433.969-969.22-969.221c0-535.247,433.96-969.22,969.22-969.22
		C968.347-791.952,1402.303-357.979,1402.303,177.269z"/>
	<path fill="none" stroke="#FFFFFF" stroke-miterlimit="10" d="M1411.034,177.269c0,540.073-437.866,977.95-977.951,977.95
		c-540.083,0-977.951-437.877-977.951-977.95c0-540.07,437.869-977.951,977.951-977.951
		C973.168-800.684,1411.034-362.802,1411.034,177.269z"/>
	<path fill="none" stroke="#FFFFFF" stroke-miterlimit="10" d="M1419.767,177.269c0,544.896-441.775,986.684-986.683,986.684
		c-544.904,0-986.683-441.786-986.683-986.684c0-544.891,441.779-986.683,986.683-986.683
		C977.989-809.416,1419.767-367.623,1419.767,177.269z"/>
	<path fill="none" stroke="#FFFFFF" stroke-miterlimit="10" d="M1428.497,177.269c0,549.719-445.688,995.415-995.414,995.415
		s-995.415-445.695-995.415-995.415c0-549.714,445.688-995.414,995.415-995.414C982.812-818.146,1428.497-372.445,1428.497,177.269z
		"/>
	<path fill="none" stroke="#FFFFFF" stroke-miterlimit="10" d="M1437.229,177.269c0,554.54-449.595,1004.146-1004.146,1004.146
		c-554.549,0-1004.146-449.606-1004.146-1004.146c0-554.536,449.597-1004.146,1004.146-1004.146
		C987.635-826.877,1437.229-377.268,1437.229,177.269z"/>
	<path fill="none" stroke="#FFFFFF" stroke-miterlimit="10" d="M1445.962,177.269c0,559.362-453.506,1012.881-1012.878,1012.881
		c-559.371,0-1012.878-453.52-1012.878-1012.881c0-559.358,453.507-1012.879,1012.878-1012.879
		C992.456-835.612,1445.962-382.089,1445.962,177.269z"/>
	<path fill="none" stroke="#FFFFFF" stroke-miterlimit="10" d="M1454.693,177.269c0,564.185-457.415,1021.608-1021.61,1021.608
		c-564.193,0-1021.61-457.425-1021.61-1021.608c0-564.18,457.417-1021.609,1021.61-1021.609
		C997.278-844.34,1454.693-386.912,1454.693,177.269z"/>
	<path fill="none" stroke="#FFFFFF" stroke-miterlimit="10" d="M1463.425,177.269c0,569.008-461.323,1030.343-1030.341,1030.343
		c-569.015,0-1030.341-461.335-1030.341-1030.343c0-569.001,461.327-1030.342,1030.341-1030.342
		C1002.101-853.074,1463.425-391.733,1463.425,177.269z"/>
	<path fill="none" stroke="#FFFFFF" stroke-miterlimit="10" d="M1472.155,177.269c0,573.828-465.232,1039.073-1039.072,1039.073
		c-573.837,0-1039.073-465.245-1039.073-1039.073c0-573.825,465.236-1039.073,1039.073-1039.073
		C1006.923-861.804,1472.155-396.557,1472.155,177.269z"/>
	<path fill="none" stroke="#FFFFFF" stroke-miterlimit="10" d="M1480.888,177.269c0,578.651-469.144,1047.807-1047.804,1047.807
		c-578.659,0-1047.805-469.154-1047.805-1047.807c0-578.645,469.146-1047.805,1047.805-1047.805
		C1011.744-870.538,1480.888-401.376,1480.888,177.269z"/>
	<path fill="none" stroke="#FFFFFF" stroke-miterlimit="10" d="M1489.621,177.269c0,583.474-473.055,1056.536-1056.538,1056.536
		c-583.481,0-1056.537-473.062-1056.537-1056.536c0-583.469,473.055-1056.535,1056.537-1056.535
		C1016.566-879.268,1489.621-406.201,1489.621,177.269z"/>
	<path fill="none" stroke="#FFFFFF" stroke-miterlimit="10" d="M1498.352,177.269c0,588.296-476.962,1065.27-1065.268,1065.27
		c-588.303,0-1065.269-476.974-1065.269-1065.27C-632.185-411.021-155.22-888,433.083-888
		C1021.39-888,1498.352-411.021,1498.352,177.269z"/>
	<path fill="none" stroke="#FFFFFF" stroke-miterlimit="10" d="M1507.085,177.269c0,593.117-480.875,1074-1074.001,1074
		c-593.125,0-1074-480.884-1074-1074c0-593.112,480.875-1073.999,1074-1073.999C1026.21-896.73,1507.085-415.844,1507.085,177.269z"
		/>
	<path fill="none" stroke="#FFFFFF" stroke-miterlimit="10" d="M1515.814,177.269C1515.814,775.207,1031.033,1260,433.083,1260
		c-597.947,0-1082.731-484.793-1082.731-1082.731c0-597.934,484.785-1082.732,1082.732-1082.732
		C1031.033-905.463,1515.814-420.667,1515.814,177.269z"/>
	<path fill="none" stroke="#FFFFFF" stroke-miterlimit="10" d="M1524.547,177.269c0,602.763-488.691,1091.464-1091.463,1091.464
		c-602.769,0-1091.464-488.701-1091.464-1091.464c0-602.756,488.695-1091.464,1091.464-1091.464
		C1035.855-914.196,1524.547-425.487,1524.547,177.269z"/>
	<path fill="none" stroke="#FFFFFF" stroke-miterlimit="10" d="M1533.278,177.269c0,607.581-492.603,1100.195-1100.195,1100.195
		c-607.592,0-1100.195-492.614-1100.195-1100.195c0-607.579,492.604-1100.195,1100.195-1100.195
		C1040.678-922.927,1533.278-430.312,1533.278,177.269z"/>
	<path fill="none" stroke="#FFFFFF" stroke-miterlimit="10" d="M1542.011,177.269c0,612.404-496.513,1108.928-1108.927,1108.928
		S-675.843,789.674-675.843,177.269c0-612.4,496.514-1108.927,1108.927-1108.927
		C1045.498-931.659,1542.011-435.131,1542.011,177.269z"/>
	<path fill="none" stroke="#FFFFFF" stroke-miterlimit="10" d="M1550.741,177.269c0,617.228-500.421,1117.658-1117.658,1117.658
		c-617.235,0-1117.658-500.432-1117.658-1117.658c0-617.223,500.423-1117.658,1117.658-1117.658
		C1050.32-940.391,1550.741-439.956,1550.741,177.269z"/>
	<path fill="none" stroke="#FFFFFF" stroke-miterlimit="10" d="M1559.474,177.269c0,622.05-504.332,1126.392-1126.39,1126.392
		S-693.307,799.317-693.307,177.269c0-622.045,504.332-1126.39,1126.39-1126.39S1559.474-444.776,1559.474,177.269z"/>
	<path fill="none" stroke="#FFFFFF" stroke-miterlimit="10" d="M1568.204,177.269c0,626.87-508.24,1135.122-1135.121,1135.122
		c-626.879,0-1135.122-508.252-1135.122-1135.122c0-626.867,508.242-1135.122,1135.122-1135.122
		C1059.964-957.854,1568.204-449.599,1568.204,177.269z"/>
	<path fill="none" stroke="#FFFFFF" stroke-miterlimit="10" d="M1576.938,177.269c0,631.692-512.148,1143.854-1143.854,1143.854
		c-631.701,0-1143.853-512.162-1143.853-1143.854c0-631.688,512.152-1143.854,1143.853-1143.854
		C1064.787-966.585,1576.938-454.42,1576.938,177.269z"/>
	<path fill="none" stroke="#FFFFFF" stroke-miterlimit="10" d="M1585.667,177.269c0,636.517-516.058,1152.584-1152.583,1152.584
		c-636.523,0-1152.585-516.067-1152.585-1152.584c0-636.51,516.062-1152.585,1152.585-1152.585
		C1069.609-975.316,1585.667-459.243,1585.667,177.269z"/>
	<path fill="none" stroke="#FFFFFF" stroke-miterlimit="10" d="M1594.4,177.269c0,641.336-519.972,1161.317-1161.317,1161.317
		S-728.234,818.606-728.234,177.269c0-641.333,519.972-1161.318,1161.317-1161.318C1074.431-984.049,1594.4-464.065,1594.4,177.269z
		"/>
	<path fill="none" stroke="#FFFFFF" stroke-miterlimit="10" d="M1603.131,177.269c0,646.159-523.878,1170.049-1170.047,1170.049
		c-646.168,0-1170.049-523.891-1170.049-1170.049c0-646.154,523.881-1170.048,1170.049-1170.048
		C1079.253-992.781,1603.131-468.886,1603.131,177.269z"/>
	<path fill="none" stroke="#FFFFFF" stroke-miterlimit="10" d="M1611.864,177.269c0,650.981-527.789,1178.781-1178.781,1178.781
		c-650.99,0-1178.781-527.8-1178.781-1178.781c0-650.977,527.791-1178.781,1178.781-1178.781
		C1084.075-1001.513,1611.864-473.708,1611.864,177.269z"/>
	<path fill="none" stroke="#FFFFFF" stroke-miterlimit="10" d="M1620.598,177.269c0,655.805-531.698,1187.512-1187.514,1187.512
		c-655.812,0-1187.512-531.707-1187.512-1187.512c0-655.799,531.7-1187.511,1187.512-1187.511
		C1088.896-1010.244,1620.598-478.532,1620.598,177.269z"/>
	<path fill="none" stroke="#FFFFFF" stroke-miterlimit="10" d="M1629.327,177.269c0,660.625-535.608,1196.244-1196.244,1196.244
		c-660.634,0-1196.244-535.617-1196.244-1196.244c0-660.621,535.609-1196.245,1196.244-1196.245
		C1093.719-1018.977,1629.327-483.354,1629.327,177.269z"/>
	<path fill="none" stroke="#FFFFFF" stroke-miterlimit="10" d="M1638.061,177.269c0,665.447-539.519,1204.977-1204.977,1204.977
		c-665.456,0-1204.976-539.528-1204.976-1204.977c0-665.442,539.521-1204.975,1204.976-1204.975
		C1098.542-1027.707,1638.061-488.174,1638.061,177.269z"/>
	<path fill="none" stroke="#FFFFFF" stroke-miterlimit="10" d="M1646.79,177.269c0,670.271-543.426,1213.708-1213.707,1213.708
		c-670.277,0-1213.708-543.438-1213.708-1213.708c0-670.265,543.431-1213.708,1213.708-1213.708
		C1103.364-1036.439,1646.79-492.997,1646.79,177.269z"/>
	<path fill="none" stroke="#FFFFFF" stroke-miterlimit="10" d="M1655.521,177.269c0,675.092-547.336,1222.438-1222.438,1222.438
		c-675.1,0-1222.439-547.348-1222.439-1222.438c0-675.088,547.339-1222.438,1222.439-1222.438
		C1108.188-1045.171,1655.521-497.82,1655.521,177.269z"/>
	<path fill="none" stroke="#FFFFFF" stroke-miterlimit="10" d="M1664.253,177.269c0,679.914-551.245,1231.172-1231.169,1231.172
		c-679.922,0-1231.171-551.259-1231.171-1231.172c0-679.908,551.25-1231.17,1231.171-1231.17
		C1113.008-1053.902,1664.253-502.641,1664.253,177.269z"/>
	<path fill="none" stroke="#FFFFFF" stroke-miterlimit="10" d="M1672.986,177.269c0,684.736-555.157,1239.902-1239.903,1239.902
		c-684.744,0-1239.902-555.166-1239.902-1239.902c0-684.731,555.158-1239.901,1239.902-1239.901
		C1117.829-1062.634,1672.986-507.463,1672.986,177.269z"/>
	<path fill="none" stroke="#FFFFFF" stroke-miterlimit="10" d="M1681.718,177.269c0,689.56-559.065,1248.636-1248.634,1248.636
		S-815.55,866.827-815.55,177.269c0-689.554,559.067-1248.634,1248.634-1248.634S1681.718-512.286,1681.718,177.269z"/>
	<path fill="none" stroke="#FFFFFF" stroke-miterlimit="10" d="M1690.449,177.269c0,694.38-562.979,1257.367-1257.366,1257.367
		S-824.282,871.646-824.282,177.269c0-694.375,562.977-1257.365,1257.366-1257.365S1690.449-517.107,1690.449,177.269z"/>
	<path fill="none" stroke="#FFFFFF" stroke-miterlimit="10" d="M1699.18,177.269c0,699.201-566.883,1266.098-1266.096,1266.098
		c-699.21,0-1266.098-566.896-1266.098-1266.098c0-699.197,566.887-1266.097,1266.098-1266.097
		C1132.297-1088.829,1699.18-521.93,1699.18,177.269z"/>
	<path fill="none" stroke="#FFFFFF" stroke-miterlimit="10" d="M1707.913,177.269c0,704.024-570.794,1274.83-1274.83,1274.83
		c-704.032,0-1274.829-570.806-1274.829-1274.83c0-704.02,570.797-1274.829,1274.829-1274.829
		C1137.119-1097.562,1707.913-526.751,1707.913,177.269z"/>
	<path fill="none" stroke="#FFFFFF" stroke-miterlimit="10" d="M1716.643,177.269c0,708.846-574.703,1283.561-1283.559,1283.561
		S-850.477,886.114-850.477,177.269c0-708.842,574.706-1283.561,1283.561-1283.561S1716.643-531.575,1716.643,177.269z"/>
	<path fill="none" stroke="#FFFFFF" stroke-miterlimit="10" d="M1725.376,177.269c0,713.668-578.614,1292.293-1292.292,1292.293
		c-713.676,0-1292.293-578.625-1292.293-1292.293c0-713.663,578.617-1292.293,1292.293-1292.293
		C1146.762-1115.024,1725.376-536.395,1725.376,177.269z"/>
	<path fill="none" stroke="#FFFFFF" stroke-miterlimit="10" d="M1734.105,177.269c0,718.49-582.522,1301.023-1301.022,1301.023
		c-718.499,0-1301.024-582.533-1301.024-1301.023c0-718.486,582.526-1301.024,1301.024-1301.024
		C1151.583-1123.756,1734.105-541.218,1734.105,177.269z"/>
	<path fill="none" stroke="#FFFFFF" stroke-miterlimit="10" d="M1742.84,177.269c0,723.312-586.435,1309.758-1309.756,1309.758
		S-876.672,900.581-876.672,177.269c0-723.307,586.436-1309.756,1309.756-1309.756
		C1156.405-1132.487,1742.84-546.039,1742.84,177.269z"/>
	<path fill="none" stroke="#FFFFFF" stroke-miterlimit="10" d="M1751.569,177.269c0,728.135-590.344,1318.487-1318.486,1318.487
		S-885.405,905.402-885.405,177.269c0-728.13,590.346-1318.486,1318.488-1318.486
		C1161.229-1141.219,1751.569-550.862,1751.569,177.269z"/>
	<path fill="none" stroke="#FFFFFF" stroke-miterlimit="10" d="M1760.303,177.269c0,732.956-594.252,1327.221-1327.219,1327.221
		c-732.965,0-1327.219-594.266-1327.219-1327.221c0-732.952,594.254-1327.219,1327.219-1327.219
		C1166.051-1149.951,1760.303-555.684,1760.303,177.269z"/>
	<path fill="none" stroke="#FFFFFF" stroke-miterlimit="10" d="M1769.035,177.269c0,737.779-598.163,1335.951-1335.952,1335.951
		c-737.787,0-1335.951-598.172-1335.951-1335.951c0-737.773,598.164-1335.951,1335.951-1335.951
		C1170.872-1158.683,1769.035-560.505,1769.035,177.269z"/>
	<path fill="none" stroke="#FFFFFF" stroke-miterlimit="10" d="M1777.767,177.269c0,742.601-602.07,1344.685-1344.683,1344.685
		C-309.525,1521.952-911.6,919.868-911.6,177.269c0-742.597,602.074-1344.683,1344.683-1344.683
		C1175.694-1167.414,1777.767-565.329,1777.767,177.269z"/>
	<path fill="none" stroke="#FFFFFF" stroke-miterlimit="10" d="M1786.499,177.269c0,747.424-605.981,1353.415-1353.416,1353.415
		c-747.431,0-1353.415-605.99-1353.415-1353.415c0-747.417,605.983-1353.414,1353.415-1353.414
		C1180.517-1176.146,1786.499-570.148,1786.499,177.269z"/>
	<path fill="none" stroke="#FFFFFF" stroke-miterlimit="10" d="M1795.229,177.269c0,752.245-609.89,1362.146-1362.145,1362.146
		c-752.252,0-1362.146-609.9-1362.146-1362.146c0-752.241,609.894-1362.146,1362.146-1362.146
		C1185.339-1184.878,1795.229-574.972,1795.229,177.269z"/>
	<path fill="none" stroke="#FFFFFF" stroke-miterlimit="10" d="M1803.962,177.269c0,757.067-613.802,1370.879-1370.878,1370.879
		c-757.075,0-1370.878-613.812-1370.878-1370.879c0-757.061,613.803-1370.878,1370.878-1370.878
		C1190.16-1193.609,1803.962-579.792,1803.962,177.269z"/>
	<path fill="none" stroke="#FFFFFF" stroke-miterlimit="10" d="M1812.692,177.269c0,761.89-617.71,1379.61-1379.609,1379.61
		c-761.897,0-1379.61-617.722-1379.61-1379.61c0-761.884,617.713-1379.609,1379.61-1379.609
		C1194.982-1202.341,1812.692-584.616,1812.692,177.269z"/>
	<path fill="none" stroke="#FFFFFF" stroke-miterlimit="10" d="M1821.426,177.269c0,766.711-621.62,1388.342-1388.342,1388.342
		c-766.719,0-1388.341-621.63-1388.341-1388.342c0-766.706,621.622-1388.341,1388.341-1388.341
		C1199.806-1211.073,1821.426-589.438,1821.426,177.269z"/>
	<path fill="none" stroke="#FFFFFF" stroke-miterlimit="10" d="M1830.155,177.269c0,771.534-625.527,1397.072-1397.072,1397.072
		c-771.541,0-1397.073-625.538-1397.073-1397.072c0-771.528,625.532-1397.072,1397.073-1397.072
		C1204.628-1219.806,1830.155-594.259,1830.155,177.269z"/>
	<path fill="none" stroke="#FFFFFF" stroke-miterlimit="10" d="M1838.889,177.269c0,776.354-629.438,1405.807-1405.805,1405.807
		c-776.363,0-1405.804-629.452-1405.804-1405.807c0-776.351,629.441-1405.805,1405.804-1405.805
		C1209.448-1228.536,1838.889-599.083,1838.889,177.269z"/>
	<path fill="none" stroke="#FFFFFF" stroke-miterlimit="10" d="M1847.619,177.269c0,781.179-633.35,1414.536-1414.536,1414.536
		S-981.454,958.447-981.454,177.269c0-781.172,633.351-1414.536,1414.537-1414.536
		C1214.271-1237.269,1847.619-603.904,1847.619,177.269z"/>
	<path fill="none" stroke="#FFFFFF" stroke-miterlimit="10" d="M1856.352,177.269c0,785.997-637.26,1423.271-1423.268,1423.271
		c-786.007,0-1423.269-637.271-1423.269-1423.271c0-785.995,637.262-1423.268,1423.269-1423.268
		C1219.092-1245.999,1856.352-608.728,1856.352,177.269z"/>
	<path fill="none" stroke="#FFFFFF" stroke-miterlimit="10" d="M1865.082,177.269c0,790.82-641.168,1431.999-1431.999,1431.999
		c-790.829,0-1432-641.179-1432-1431.999c0-790.815,641.172-1432,1432-1432C1223.914-1254.731,1865.082-613.546,1865.082,177.269z"
		/>
	<path fill="none" stroke="#FFFFFF" stroke-miterlimit="10" d="M1873.814,177.269c0,795.644-645.078,1440.732-1440.731,1440.732
		c-795.651,0-1440.731-645.09-1440.731-1440.732c0-795.639,645.08-1440.73,1440.731-1440.73
		C1228.736-1263.463,1873.814-618.371,1873.814,177.269z"/>
	<path fill="none" stroke="#FFFFFF" stroke-miterlimit="10" d="M1882.546,177.269c0,800.465-648.985,1449.464-1449.462,1449.464
		c-800.473,0-1449.463-648.999-1449.463-1449.464c0-800.46,648.99-1449.463,1449.463-1449.463
		C1233.561-1272.195,1882.546-623.191,1882.546,177.269z"/>
	<path fill="none" stroke="#FFFFFF" stroke-miterlimit="10" d="M1891.278,177.269c0,805.288-652.897,1458.196-1458.195,1458.196
		c-805.295,0-1458.195-652.908-1458.195-1458.196c0-805.282,652.899-1458.194,1458.195-1458.194
		C1238.381-1280.926,1891.278-628.014,1891.278,177.269z"/>
	<path fill="none" stroke="#FFFFFF" stroke-miterlimit="10" d="M1900.011,177.269c0,810.108-656.808,1466.928-1466.927,1466.928
		c-810.117,0-1466.927-656.818-1466.927-1466.928c0-810.106,656.81-1466.927,1466.927-1466.927
		C1243.203-1289.658,1900.011-632.837,1900.011,177.269z"/>
	<path fill="none" stroke="#FFFFFF" stroke-miterlimit="10" d="M1908.741,177.269c0,814.933-660.718,1475.659-1475.658,1475.659
		S-1042.576,992.2-1042.576,177.269c0-814.926,660.719-1475.657,1475.659-1475.657
		C1248.024-1298.391,1908.741-637.658,1908.741,177.269z"/>
	<path fill="none" stroke="#FFFFFF" stroke-miterlimit="10" d="M1917.475,177.269c0,819.752-664.628,1484.392-1484.391,1484.392
		s-1484.391-664.64-1484.391-1484.392c0-819.749,664.629-1484.39,1484.391-1484.39
		C1252.847-1307.122,1917.475-642.48,1917.475,177.269z"/>
	<path fill="none" stroke="#FFFFFF" stroke-miterlimit="10" d="M1926.204,177.269c0,824.575-668.535,1493.121-1493.121,1493.121
		c-824.583,0-1493.122-668.546-1493.122-1493.121c0-824.569,668.539-1493.121,1493.122-1493.121
		C1257.669-1315.854,1926.204-647.301,1926.204,177.269z"/>
	<path fill="none" stroke="#FFFFFF" stroke-miterlimit="10" d="M1934.938,177.269c0,829.397-672.444,1501.854-1501.854,1501.854
		c-829.406,0-1501.854-672.456-1501.854-1501.854c0-829.393,672.448-1501.854,1501.854-1501.854
		C1262.491-1324.585,1934.938-652.125,1934.938,177.269z"/>
	<path fill="none" stroke="#FFFFFF" stroke-miterlimit="10" d="M1943.668,177.269c0,834.221-676.354,1510.584-1510.584,1510.584
		c-834.228,0-1510.585-676.363-1510.585-1510.584c0-834.215,676.357-1510.585,1510.585-1510.585S1943.668-656.947,1943.668,177.269z
		"/>
	<path fill="none" stroke="#FFFFFF" stroke-miterlimit="10" d="M1952.401,177.269c0,839.042-680.269,1519.317-1519.318,1519.317
		c-839.049,0-1519.317-680.275-1519.317-1519.317c0-839.036,680.268-1519.316,1519.317-1519.316
		C1272.135-1342.049,1952.401-661.769,1952.401,177.269z"/>
	<path fill="none" stroke="#FFFFFF" stroke-miterlimit="10" d="M1961.131,177.269c0,843.863-684.173,1528.05-1528.047,1528.05
		c-843.872,0-1528.048-684.188-1528.048-1528.05c0-843.858,684.177-1528.049,1528.048-1528.049
		C1276.958-1350.78,1961.131-666.59,1961.131,177.269z"/>
	<path fill="none" stroke="#FFFFFF" stroke-miterlimit="10" d="M1969.864,177.269c0,848.688-688.084,1536.781-1536.781,1536.781
		c-848.694,0-1536.781-688.095-1536.781-1536.781c0-848.68,688.087-1536.779,1536.781-1536.779
		C1281.78-1359.512,1969.864-671.413,1969.864,177.269z"/>
	<path fill="none" stroke="#FFFFFF" stroke-miterlimit="10" d="M1978.595,177.269c0,853.508-691.993,1545.513-1545.511,1545.513
		c-853.516,0-1545.512-692.005-1545.512-1545.513c0-853.503,691.996-1545.512,1545.512-1545.512
		C1286.602-1368.243,1978.595-676.235,1978.595,177.269z"/>
	<path fill="none" stroke="#FFFFFF" stroke-miterlimit="10" d="M1987.328,177.269c0,858.33-695.904,1554.245-1554.245,1554.245
		c-858.338,0-1554.244-695.915-1554.244-1554.245c0-858.324,695.906-1554.244,1554.244-1554.244
		C1291.424-1376.976,1987.328-681.057,1987.328,177.269z"/>
	<path fill="none" stroke="#FFFFFF" stroke-miterlimit="10" d="M1996.058,177.269c0,863.151-699.812,1562.976-1562.974,1562.976
		c-863.161,0-1562.976-699.823-1562.976-1562.976c0-863.147,699.815-1562.976,1562.976-1562.976
		C1296.246-1385.707,1996.058-685.879,1996.058,177.269z"/>
	<path fill="none" stroke="#FFFFFF" stroke-miterlimit="10" d="M2004.79,177.269c0,867.974-703.721,1571.708-1571.707,1571.708
		c-867.982,0-1571.708-703.733-1571.708-1571.708c0-867.969,703.725-1571.708,1571.708-1571.708
		C1301.069-1394.439,2004.79-690.702,2004.79,177.269z"/>
	<path fill="none" stroke="#FFFFFF" stroke-miterlimit="10" d="M2013.521,177.269c0,872.796-707.635,1580.438-1580.438,1580.438
		s-1580.439-707.644-1580.439-1580.438c0-872.791,707.635-1580.438,1580.439-1580.438
		C1305.889-1403.17,2013.521-695.522,2013.521,177.269z"/>
	<path fill="none" stroke="#FFFFFF" stroke-miterlimit="10" d="M2022.255,177.269c0,877.617-711.543,1589.172-1589.171,1589.172
		c-877.625,0-1589.171-711.556-1589.171-1589.172c0-877.613,711.545-1589.171,1589.171-1589.171
		C1310.712-1411.902,2022.255-700.345,2022.255,177.269z"/>
	<path fill="none" stroke="#FFFFFF" stroke-miterlimit="10" d="M2030.987,177.269c0,882.44-715.454,1597.901-1597.904,1597.901
		c-882.448,0-1597.902-715.461-1597.902-1597.901c0-882.435,715.454-1597.901,1597.902-1597.901
		C1315.533-1420.634,2030.987-705.167,2030.987,177.269z"/>
	<path fill="none" stroke="#FFFFFF" stroke-miterlimit="10" d="M2039.717,177.269c0,887.262-719.361,1606.635-1606.633,1606.635
		c-887.27,0-1606.634-719.373-1606.634-1606.635c0-887.258,719.364-1606.634,1606.634-1606.634
		C1320.355-1429.366,2039.717-709.991,2039.717,177.269z"/>
	<path fill="none" stroke="#FFFFFF" stroke-miterlimit="10" d="M2048.45,177.269c0,892.084-723.272,1615.366-1615.367,1615.366
		c-892.092,0-1615.366-723.281-1615.366-1615.366c0-892.079,723.274-1615.364,1615.366-1615.364
		C1325.178-1438.098,2048.45-714.811,2048.45,177.269z"/>
	<path fill="none" stroke="#FFFFFF" stroke-miterlimit="10" d="M2057.181,177.269c0,896.905-727.182,1624.1-1624.097,1624.1
		s-1624.098-727.193-1624.098-1624.1c0-896.901,727.184-1624.097,1624.098-1624.097
		C1329.999-1446.828,2057.181-719.633,2057.181,177.269z"/>
	<path fill="none" stroke="#FFFFFF" stroke-miterlimit="10" d="M2065.913,177.269c0,901.729-731.091,1632.83-1632.83,1632.83
		c-901.737,0-1632.83-731.103-1632.83-1632.83c0-901.724,731.093-1632.829,1632.83-1632.829
		C1334.822-1455.562,2065.913-724.456,2065.913,177.269z"/>
	<path fill="none" stroke="#FFFFFF" stroke-miterlimit="10" d="M2074.645,177.269c0,906.551-735,1641.562-1641.561,1641.562
		c-906.559,0-1641.561-735.011-1641.561-1641.562c0-906.545,735.002-1641.562,1641.561-1641.562
		C1339.645-1464.293,2074.645-729.277,2074.645,177.269z"/>
	<path fill="none" stroke="#FFFFFF" stroke-miterlimit="10" d="M2083.377,177.269c0,911.372-738.91,1650.293-1650.293,1650.293
		c-911.38,0-1650.292-738.922-1650.292-1650.293c0-911.368,738.912-1650.292,1650.292-1650.292
		C1344.467-1473.024,2083.377-734.1,2083.377,177.269z"/>
	<path fill="none" stroke="#FFFFFF" stroke-miterlimit="10" d="M2092.107,177.269c0,916.194-742.819,1659.024-1659.024,1659.024
		c-916.202,0-1659.025-742.83-1659.025-1659.024c0-916.189,742.823-1659.023,1659.025-1659.023
		C1349.288-1481.756,2092.107-738.921,2092.107,177.269z"/>
	<path fill="none" stroke="#FFFFFF" stroke-miterlimit="10" d="M2100.841,177.269c0,921.017-746.729,1667.756-1667.757,1667.756
		c-921.024,0-1667.756-746.739-1667.756-1667.756c0-921.013,746.731-1667.756,1667.756-1667.756
		C1354.11-1490.487,2100.841-743.745,2100.841,177.269z"/>
	<path fill="none" stroke="#FFFFFF" stroke-miterlimit="10" d="M2109.57,177.269c0,925.84-750.639,1676.487-1676.487,1676.487
		c-925.846,0-1676.488-750.646-1676.488-1676.487c0-925.833,750.642-1676.486,1676.488-1676.486
		C1358.933-1499.219,2109.57-748.564,2109.57,177.269z"/>
	<path fill="none" stroke="#FFFFFF" stroke-miterlimit="10" d="M2118.304,177.269c0,930.661-754.55,1685.222-1685.22,1685.222
		c-930.669,0-1685.219-754.562-1685.219-1685.222c0-930.656,754.55-1685.219,1685.219-1685.219
		C1363.754-1507.951,2118.304-753.387,2118.304,177.269z"/>
	<path fill="none" stroke="#FFFFFF" stroke-miterlimit="10" d="M2127.032,177.269c0,935.482-758.455,1693.951-1693.949,1693.951
		c-935.491,0-1693.951-758.469-1693.951-1693.951c0-935.478,758.46-1693.951,1693.951-1693.951
		C1368.577-1516.684,2127.032-758.209,2127.032,177.269z"/>
	<path fill="none" stroke="#FFFFFF" stroke-miterlimit="10" d="M2135.768,177.269c0,940.306-762.368,1702.684-1702.684,1702.684
		c-940.313,0-1702.683-762.378-1702.683-1702.684c0-940.3,762.37-1702.683,1702.683-1702.683
		C1373.396-1525.415,2135.768-763.032,2135.768,177.269z"/>
	<path fill="none" stroke="#FFFFFF" stroke-miterlimit="10" d="M2144.497,177.269c0,945.127-766.275,1711.414-1711.414,1711.414
		c-945.135,0-1711.415-766.286-1711.415-1711.414c0-945.122,766.28-1711.415,1711.415-1711.415
		C1378.222-1534.146,2144.497-767.854,2144.497,177.269z"/>
	<path fill="none" stroke="#FFFFFF" stroke-miterlimit="10" d="M2153.229,177.269c0,949.95-770.187,1720.147-1720.146,1720.147
		c-949.957,0-1720.146-770.197-1720.146-1720.147c0-949.944,770.19-1720.146,1720.146-1720.146
		C1383.043-1542.878,2153.229-772.675,2153.229,177.269z"/>
	<path fill="none" stroke="#FFFFFF" stroke-miterlimit="10" d="M2161.96,177.269c0,954.771-774.095,1728.879-1728.876,1728.879
		c-954.779,0-1728.878-774.108-1728.878-1728.879c0-954.767,774.099-1728.878,1728.878-1728.878
		C1387.865-1551.609,2161.96-777.499,2161.96,177.269z"/>
	<path fill="none" stroke="#FFFFFF" stroke-miterlimit="10" d="M2170.691,177.269c0,959.594-778.008,1737.61-1737.608,1737.61
		s-1737.61-778.018-1737.61-1737.61c0-959.587,778.009-1737.608,1737.61-1737.608
		C1392.686-1560.341,2170.691-782.319,2170.691,177.269z"/>
	<path fill="none" stroke="#FFFFFF" stroke-miterlimit="10" d="M2179.426,177.269c0,964.414-781.918,1746.343-1746.342,1746.343
		s-1746.341-781.929-1746.341-1746.343c0-964.411,781.917-1746.342,1746.341-1746.342S2179.426-787.143,2179.426,177.269z"/>
	<path fill="none" stroke="#FFFFFF" stroke-miterlimit="10" d="M2188.156,177.269c0,969.236-785.826,1755.073-1755.073,1755.073
		c-969.245,0-1755.074-785.837-1755.074-1755.073c0-969.232,785.829-1755.072,1755.074-1755.072
		C1402.33-1577.804,2188.156-791.964,2188.156,177.269z"/>
	<path fill="none" stroke="#FFFFFF" stroke-miterlimit="10" d="M2196.89,177.269c0,974.06-789.737,1763.807-1763.806,1763.807
		c-974.067,0-1763.805-789.747-1763.805-1763.807c0-974.054,789.738-1763.804,1763.805-1763.804
		C1407.151-1586.536,2196.89-796.787,2196.89,177.269z"/>
	<path fill="none" stroke="#FFFFFF" stroke-miterlimit="10" d="M2205.619,177.269c0,978.881-793.646,1772.536-1772.536,1772.536
		S-1339.454,1156.15-1339.454,177.269c0-978.876,793.647-1772.537,1772.537-1772.537
		C1411.975-1595.269,2205.619-801.607,2205.619,177.269z"/>
	<path fill="none" stroke="#FFFFFF" stroke-miterlimit="10" d="M2214.354,177.269c0,983.703-797.557,1781.27-1781.27,1781.27
		c-983.711,0-1781.269-797.564-1781.269-1781.27C-1348.185-806.429-550.627-1604,433.083-1604
		C1416.797-1604,2214.354-806.429,2214.354,177.269z"/>
	<path fill="none" stroke="#FFFFFF" stroke-miterlimit="10" d="M2223.083,177.269c0,988.524-801.464,1790-1790,1790
		c-988.534,0-1790-801.477-1790-1790c0-988.521,801.466-1790,1790-1790C1421.619-1612.731,2223.083-811.252,2223.083,177.269z"/>
</g>
</svg>
